<svg width="286" height="257" viewBox="0 0 286 257" fill="none" xmlns="http://www.w3.org/2000/svg">
<rect width="272.955" height="257" fill="#7C50FF"/>
<rect x="36.3933" y="31.3416" width="248.693" height="194.317" fill="#44D6B9"/>
<path d="M160.9 138.5C160.167 144.833 157.933 150.433 154.2 155.3C150.533 160.1 145.667 163.833 139.6 166.5C133.6 169.167 126.733 170.5 119 170.5C110.467 170.5 102.967 168.867 96.5 165.6C90.1 162.333 85.1 157.8 81.5 152C77.9 146.133 76.1 139.3 76.1 131.5C76.1 123.7 77.9 116.9 81.5 111.1C85.1 105.233 90.1 100.667 96.5 97.4C102.967 94.1333 110.467 92.5 119 92.5C126.733 92.5 133.6 93.8333 139.6 96.5C145.667 99.1667 150.533 102.9 154.2 107.7C157.933 112.5 160.167 118.1 160.9 124.5H143.8C143.133 120.967 141.7 117.933 139.5 115.4C137.3 112.8 134.467 110.8 131 109.4C127.533 108 123.5 107.3 118.9 107.3C113.633 107.3 109.067 108.3 105.2 110.3C101.4 112.233 98.4667 115.033 96.4 118.7C94.3333 122.3 93.3 126.567 93.3 131.5C93.3 136.433 94.3333 140.733 96.4 144.4C98.4667 148 101.4 150.8 105.2 152.8C109.067 154.733 113.633 155.7 118.9 155.7C123.5 155.7 127.533 155.033 131 153.7C134.467 152.3 137.3 150.333 139.5 147.8C141.7 145.2 143.133 142.1 143.8 138.5H160.9ZM207.585 94C216.318 94 223.952 95.5667 230.485 98.7C237.085 101.833 242.218 106.2 245.885 111.8C249.552 117.4 251.385 123.967 251.385 131.5C251.385 138.967 249.552 145.533 245.885 151.2C242.218 156.8 237.085 161.167 230.485 164.3C223.952 167.433 216.318 169 207.585 169H171.985V94H207.585ZM188.885 162.3L180.285 154H208.885C213.952 154 218.385 153.067 222.185 151.2C226.052 149.333 229.018 146.7 231.085 143.3C233.152 139.9 234.185 135.967 234.185 131.5C234.185 126.967 233.152 123.033 231.085 119.7C229.018 116.3 226.052 113.667 222.185 111.8C218.385 109.933 213.952 109 208.885 109H180.285L188.885 100.7V162.3Z" fill="#1E1E1E"/>
</svg>
